<?xml version="1.0" encoding="UTF-8"?>
<svg xmlns="http://www.w3.org/2000/svg" xmlns:xlink="http://www.w3.org/1999/xlink" viewBox="0 0 48 48"><defs><linearGradient id="c" x1="24.63" y1="47.35" x2="24.63" y2="38.93" gradientUnits="userSpaceOnUse"><stop offset="0" stop-color="#fff"/><stop offset=".52" stop-color="#cce2e6"/><stop offset="1" stop-color="#8fa1bb"/></linearGradient><linearGradient id="a" x1="24.63" y1="30.31" x2="24.63" y2="-24.54" gradientUnits="userSpaceOnUse"><stop offset="0" stop-color="#273a9b"/><stop offset=".56" stop-color="#202f65"/><stop offset="1" stop-color="#021e2f"/></linearGradient><linearGradient id="d" x1="28.88" y1="60.75" x2="28.88" y2="-37.96" xlink:href="#a"/><linearGradient id="b" x1="24.63" y1="50.87" x2="24.63" y2="-.13" gradientUnits="userSpaceOnUse"><stop offset="0" stop-color="#27e9de"/><stop offset=".52" stop-color="#03a4ec"/><stop offset="1" stop-color="#2547a8"/></linearGradient><linearGradient id="e" x1="24.62" y1="4.99" x2="24.62" y2="23.02" xlink:href="#b"/></defs><ellipse cx="24.63" cy="43.98" rx="10.5" ry="1.5" style="fill:url(#c)"/><path d="M36.76 32.82 25.82 43.77a1.69 1.69 0 0 1-2.39 0L12.49 32.82a17.16 17.16 0 0 1 0-24.27 17.16 17.16 0 0 1 24.27 0 17.16 17.16 0 0 1 0 24.27z" style="fill:url(#a)"/><path d="M16.08 5.82a14.27 14.27 0 0 1 8.61 13.1v25.34a1.68 1.68 0 0 0 1.13-.49l10.62-10.62c6.65-6.65 7.1-17.51.6-24.31a17.15 17.15 0 0 0-20.96-3.02z" style="fill:url(#d)"/><path d="M28.47 12.52a4.84 4.84 0 0 0-3.58 1.64.37.37 0 0 1-.54 0 4.84 4.84 0 0 0-3.58-1.64c-2.83 0-5.13 2.58-5.13 5.75a6.28 6.28 0 0 0 .88 3.24 8 8 0 0 1 1.15 3.17 16.17 16.17 0 0 0 1.46 5.07 1.23 1.23 0 0 0 1 .71 1.18 1.18 0 0 0 1.28-1.18v-.41A3.33 3.33 0 0 1 23 26a3.21 3.21 0 0 1 3.34 0 3.33 3.33 0 0 1 1.54 2.86v.3a1.25 1.25 0 0 0 .92 1.27 1.18 1.18 0 0 0 1.33-.64 16.17 16.17 0 0 0 1.5-5.19 6.48 6.48 0 0 1 1-2.88 6.25 6.25 0 0 0 1-3.47c-.03-3.15-2.33-5.73-5.16-5.73z" style="fill:url(#b)"/><path d="M33.57 17.66v-.21c0-.07 0-.25-.05-.37a5.31 5.31 0 0 0-5-4.56 4.79 4.79 0 0 0-3.36 1.42.68.68 0 0 1-1 0 4.79 4.79 0 0 0-3.36-1.42 5.31 5.31 0 0 0-5 4.56c0 .12 0 .25-.05.37s0 .14 0 .21V19.1c0-.12 0-.25.05-.37a5.93 5.93 0 0 1 1.57-3.05.55.55 0 0 0 .38.15.54.54 0 0 0 .45-.25.94.94 0 0 0 1.34-.8h.14a.65.65 0 0 0 .64-.59h.5a4.84 4.84 0 0 1 3.58 1.64.37.37 0 0 0 .54 0 4.84 4.84 0 0 1 3.58-1.64 5.31 5.31 0 0 1 5 4.56c0 .12 0 .25.05.37v-.8c.03-.25.02-.46 0-.66z" style="fill:url(#e)"/></svg>